<svg version="1.1" id="Layer_1" xmlns="http://www.w3.org/2000/svg" xmlns:xlink="http://www.w3.org/1999/xlink" x="0px" y="0px"
	 width="100%" viewBox="0 0 1024 1024" enable-background="new 0 0 1024 1024" xml:space="preserve">
<path fill="#F66C05" opacity="1.000000" stroke="none" 
	d="
M509.000000,0.999999 
	C519.354248,1.000000 529.708435,1.000000 540.774292,1.353412 
	C554.882629,2.831106 568.357300,3.383963 581.660217,5.196589 
	C610.888245,9.179128 639.559875,15.790788 667.711914,24.707977 
	C759.083435,53.650051 836.273071,104.190498 899.144104,176.512726 
	C931.375854,213.589752 957.957947,254.385132 978.032043,299.262085 
	C1002.932434,354.928528 1018.602661,413.034149 1023.151611,473.991486 
	C1023.526245,479.012329 1024.372803,483.997986 1025.000000,489.000000 
	C1025.000000,505.354218 1025.000000,521.708435 1024.639893,538.748047 
	C1023.233337,550.499695 1022.765808,561.658264 1021.017883,572.612549 
	C1017.547852,594.358887 1014.587158,616.295593 1009.270264,637.618591 
	C989.850220,715.502014 953.809387,784.997192 901.642639,846.110535 
	C863.344116,890.977356 818.404541,927.794861 767.410034,957.249756 
	C716.438721,986.691223 661.900146,1006.576233 603.916077,1016.747803 
	C590.719177,1019.062866 577.311584,1020.176270 563.643494,1021.645386 
	C562.481262,1021.297241 561.667358,1020.977539 560.873108,1021.020630 
	C548.559509,1021.688293 536.245117,1022.351562 523.941833,1023.179504 
	C522.593201,1023.270203 521.312317,1024.368774 520.000000,1025.000000 
	C515.643066,1025.000000 511.286194,1025.000000 506.214874,1024.702515 
	C504.299500,1023.944031 503.117920,1023.147156 501.894409,1023.076599 
	C494.105377,1022.627319 486.294250,1022.515564 478.515106,1021.951599 
	C468.758667,1021.244263 459.031036,1020.146240 449.279022,1019.366455 
	C447.205261,1019.200684 445.080078,1019.678894 442.564758,1019.924194 
	C422.174408,1015.980896 401.945435,1012.940186 382.265167,1007.799011 
	C297.897522,985.759338 224.084839,944.287537 160.509827,884.741760 
	C124.211159,850.743774 93.877235,811.900208 69.263779,768.656128 
	C30.714941,700.928650 8.077873,628.330566 2.653445,550.474182 
	C2.454928,547.624878 1.566765,544.823669 1.000000,542.000000 
	C1.000000,521.979126 1.000000,501.958221 1.296709,481.357971 
	C1.784256,480.183350 1.975094,479.588043 2.496116,478.809113 
	C3.257739,475.423126 3.633427,472.212128 4.129610,469.019867 
	C7.511742,447.260864 10.937665,425.508698 14.279258,403.743530 
	C14.515964,402.201782 14.192194,400.574036 14.104830,398.593689 
	C21.662386,366.273163 31.609732,335.115997 44.911846,305.095123 
	C83.038025,219.050140 140.659927,148.923050 217.628036,94.830048 
	C276.651978,53.348156 341.323425,24.646868 412.300507,10.807971 
	C426.429382,8.053167 440.759552,6.330837 455.345093,4.331139 
	C457.171051,4.685771 458.657227,5.032501 460.125305,4.967972 
	C474.390717,4.340956 488.656952,3.712018 502.912079,2.894216 
	C504.970825,2.776105 506.972107,1.656272 509.000000,0.999999 
M726.944519,496.410431 
	C727.114685,496.089478 727.284851,495.768494 727.723267,495.544525 
	C727.723267,495.544525 727.446777,495.432220 728.163879,495.381470 
	C728.896912,494.104065 729.630005,492.826630 730.422607,491.538696 
	C730.422607,491.538696 730.400146,491.482544 730.977356,491.292847 
	C731.272522,490.791351 731.567749,490.289825 731.868103,489.907593 
	C731.868103,489.907593 731.748718,489.907349 732.361084,489.617310 
	C732.849487,488.674713 733.337952,487.732117 733.829346,486.867645 
	C733.829346,486.867645 733.751282,486.863373 734.377991,486.573456 
	C734.743408,485.575989 735.108887,484.578522 735.526489,483.664246 
	C735.526489,483.664246 735.428772,483.654785 735.995850,483.358551 
	C736.236389,482.797668 736.476868,482.236786 736.720215,481.799561 
	C736.720215,481.799561 736.596802,481.790924 737.274292,481.548401 
	C738.124695,480.372223 739.269287,479.309906 739.775879,478.000671 
	C742.285400,471.514832 744.974365,465.067841 746.962219,458.416473 
	C753.108948,437.848999 754.130676,417.030365 748.965942,396.079407 
	C748.524963,394.290619 747.223572,392.713989 746.008118,390.331696 
	C743.474792,384.232025 741.384888,377.899994 738.331604,372.072754 
	C724.863220,346.367828 702.784363,330.319885 676.873352,319.150269 
	C662.654236,313.020782 647.898193,308.136780 632.769043,302.460388 
	C641.625305,268.302246 650.698853,233.306030 659.841431,198.043671 
	C639.186829,192.976273 618.869568,187.991608 598.223938,182.926407 
	C589.138245,217.553757 580.171021,251.729416 571.174622,286.016296 
	C554.849487,282.293579 538.821472,278.638641 522.530701,274.923767 
	C531.170227,240.082382 539.682922,205.752213 548.306763,170.974197 
	C526.800537,165.643356 505.750732,160.425644 484.594482,155.181549 
	C475.865143,190.801834 467.261810,225.908005 458.457581,261.833923 
	C417.464111,252.852692 376.986481,243.984467 336.385040,235.089127 
	C335.521362,238.690170 334.490326,242.852509 333.526733,247.030365 
	C329.698883,263.626923 325.892120,280.228363 322.545624,297.396545 
	C328.073090,298.572113 333.600586,299.747711 339.010559,300.955627 
	C339.010559,300.955627 338.979675,300.837738 339.548248,301.311951 
	C340.740479,301.516357 341.932678,301.720795 343.012878,301.950470 
	C343.012878,301.950470 342.989227,301.838074 343.561310,302.329071 
	C356.090363,305.852844 368.619415,309.376617 381.077362,312.923187 
	C381.077362,312.923187 381.090851,312.849731 381.244110,313.523621 
	C382.557648,314.335144 383.871185,315.146667 385.699860,316.160431 
	C386.141846,316.729889 386.583832,317.299377 387.182007,318.477722 
	C387.593781,318.932617 388.005524,319.387512 388.264465,319.830994 
	C388.264465,319.830994 388.286469,319.679321 388.269562,320.367523 
	C388.919403,321.219025 389.569244,322.070526 390.116516,322.917236 
	C390.116516,322.917236 390.126160,322.815063 390.112061,323.632416 
	C392.333130,331.398071 393.010132,339.233246 391.497955,347.240631 
	C391.211578,348.756989 391.724304,350.424286 391.944977,352.796539 
	C391.512390,354.566010 391.091980,356.338562 390.645538,358.104523 
	C375.443481,418.235565 360.261932,478.371796 345.023010,538.493469 
	C339.217499,561.397705 333.279419,584.268250 326.903259,607.571777 
	C326.771057,608.188599 326.638824,608.805420 326.462585,609.321289 
	C326.462585,609.321289 326.563965,609.364380 325.990845,609.626831 
	C325.719421,610.166809 325.447968,610.706726 325.173309,611.170776 
	C325.173309,611.170776 325.249084,611.175842 324.542542,611.213196 
	C323.664154,612.322266 322.785767,613.431274 321.762024,614.824890 
	C321.762024,614.824890 321.445129,614.866272 320.851807,614.771423 
	C320.242065,615.219788 319.632324,615.668213 319.036530,616.042175 
	C319.036530,616.042175 319.110535,616.058044 318.281921,616.084167 
	C309.891266,618.302246 301.609100,617.611145 293.334015,615.332825 
	C283.427338,612.605286 273.507324,609.914490 263.530823,607.460815 
	C261.175659,606.881653 258.571808,607.313721 256.063568,608.014587 
	C247.498642,629.987122 238.933701,651.959595 230.252319,674.230835 
	C254.580032,681.304993 278.806702,688.349854 303.310394,695.998413 
	C304.269226,696.606201 305.151733,697.489136 306.198608,697.779480 
	C317.741089,700.981384 329.285187,704.184204 340.884430,707.170715 
	C344.500031,708.101624 345.605957,709.340454 344.534943,713.377869 
	C336.812561,742.489380 329.373901,771.676331 321.948517,800.865662 
	C321.546844,802.444763 322.071930,804.259583 322.075378,805.957764 
	C322.075378,805.957764 322.085266,805.867798 322.311188,806.548462 
	C322.787964,806.980835 323.198853,807.664429 323.751038,807.809143 
	C342.214966,812.651428 360.686920,817.463745 379.186584,822.166748 
	C379.979645,822.368347 381.046936,821.491333 382.113403,820.346069 
	C390.990051,786.988098 399.866730,753.630127 408.797577,720.068481 
	C424.277832,723.886169 439.293793,727.589417 454.720001,731.393799 
	C445.899445,765.549011 437.193085,799.262146 428.400208,833.310181 
	C448.800812,838.621094 468.591217,843.773071 488.831787,849.042297 
	C497.750427,814.609192 506.600494,780.441040 515.495483,746.099304 
	C517.388000,746.712585 518.926392,747.211060 520.293884,748.184631 
	C521.769531,748.757690 523.201843,749.511230 524.727234,749.876831 
	C550.729431,756.110352 577.067871,758.873718 603.830872,758.096802 
	C619.604004,757.638916 634.916687,755.135010 649.749451,749.840149 
	C652.292908,748.932251 654.521790,747.142822 657.311340,745.206787 
	C681.953003,734.698853 700.916016,717.568237 714.970154,695.000671 
	C727.193604,675.372742 732.569641,653.533081 735.277283,630.750977 
	C739.307617,596.839172 730.185974,567.887939 703.811340,545.523499 
	C695.458801,538.440979 685.822205,532.872803 676.660522,526.533569 
	C694.785461,521.612915 710.929871,512.291748 725.188477,498.588104 
	C725.434448,498.286194 725.680420,497.984253 725.925903,497.930939 
	C725.925903,497.930939 725.677307,497.927063 726.113586,497.531616 
	C726.303650,497.191223 726.493652,496.850800 726.691650,496.721649 
	C726.691650,496.721649 726.480286,496.715424 726.944519,496.410431 
z"/>
<path fill="#FFFFFF" opacity="1.000000" stroke="none" 
	d="
M564.000916,1021.842651 
	C577.311584,1020.176270 590.719177,1019.062866 603.916077,1016.747803 
	C661.900146,1006.576233 716.438721,986.691223 767.410034,957.249756 
	C818.404541,927.794861 863.344116,890.977356 901.642639,846.110535 
	C953.809387,784.997192 989.850220,715.502014 1009.270264,637.618591 
	C1014.587158,616.295593 1017.547852,594.358887 1021.017883,572.612549 
	C1022.765808,561.658264 1023.233337,550.499695 1024.639893,539.216736 
	C1025.000000,700.927612 1025.000000,862.855225 1025.000000,1025.000000 
	C860.979187,1025.000000 696.958252,1025.000000 532.727661,1024.661621 
	C543.012268,1023.496399 553.506592,1022.669556 564.000916,1021.842651 
z"/>
<path fill="#FFFFFF" opacity="1.000000" stroke="none" 
	d="
M1.000000,542.468628 
	C1.566765,544.823669 2.454928,547.624878 2.653445,550.474182 
	C8.077873,628.330566 30.714941,700.928650 69.263779,768.656128 
	C93.877235,811.900208 124.211159,850.743774 160.509827,884.741760 
	C224.084839,944.287537 297.897522,985.759338 382.265167,1007.799011 
	C401.945435,1012.940186 422.174408,1015.980896 442.979309,1020.002808 
	C458.162170,1021.360291 472.518219,1022.687500 486.868896,1024.070190 
	C488.262848,1024.204468 489.623749,1024.681885 491.000000,1025.000000 
	C327.740112,1025.000000 164.480209,1025.000000 1.000000,1025.000000 
	C1.000000,864.312500 1.000000,703.624939 1.000000,542.468628 
z"/>
<path fill="#FFFFFF" opacity="1.000000" stroke="none" 
	d="
M1025.000000,488.531342 
	C1024.372803,483.997986 1023.526245,479.012329 1023.151611,473.991486 
	C1018.602661,413.034149 1002.932434,354.928528 978.032043,299.262085 
	C957.957947,254.385132 931.375854,213.589752 899.144104,176.512726 
	C836.273071,104.190498 759.083435,53.650051 667.711914,24.707977 
	C639.559875,15.790788 610.888245,9.179128 581.660217,5.196589 
	C568.357300,3.383963 554.882629,2.831106 541.242920,1.353412 
	C702.260681,1.000000 863.521423,1.000000 1025.000000,1.000000 
	C1025.000000,163.354156 1025.000000,325.708435 1025.000000,488.531342 
z"/>
<path fill="#FFFFFF" opacity="1.000000" stroke="none" 
	d="
M454.996918,4.132408 
	C440.759552,6.330837 426.429382,8.053167 412.300507,10.807971 
	C341.323425,24.646868 276.651978,53.348156 217.628036,94.830048 
	C140.659927,148.923050 83.038025,219.050140 44.911846,305.095123 
	C31.609732,335.115997 21.662386,366.273163 13.997862,398.973389 
	C11.266931,413.679474 8.202704,427.550690 6.095273,441.565765 
	C4.231843,453.958191 3.434152,466.510864 2.165931,478.992767 
	C1.975094,479.588043 1.784256,480.183350 1.296709,480.889313 
	C1.000000,321.072540 1.000000,161.145065 1.000000,1.000000 
	C162.354156,1.000000 323.708435,1.000000 485.285645,1.352364 
	C475.338013,2.513955 465.167480,3.323182 454.996918,4.132408 
z"/>
<path fill="#F85406" opacity="1.000000" stroke="none" 
	d="
M491.466125,1025.000000 
	C489.623749,1024.681885 488.262848,1024.204468 486.868896,1024.070190 
	C472.518219,1022.687500 458.162170,1021.360291 443.393127,1019.938965 
	C445.080078,1019.678894 447.205261,1019.200684 449.279022,1019.366455 
	C459.031036,1020.146240 468.758667,1021.244263 478.515106,1021.951599 
	C486.294250,1022.515564 494.105377,1022.627319 501.894409,1023.076599 
	C503.117920,1023.147156 504.299500,1023.944031 505.750244,1024.702515 
	C501.310760,1025.000000 496.621490,1025.000000 491.466125,1025.000000 
z"/>
<path fill="#F7580C" opacity="1.000000" stroke="none" 
	d="
M455.345093,4.331141 
	C465.167480,3.323182 475.338013,2.513955 485.754272,1.352364 
	C493.354248,1.000000 500.708496,1.000000 508.531372,0.999999 
	C506.972107,1.656272 504.970825,2.776105 502.912079,2.894216 
	C488.656952,3.712018 474.390717,4.340956 460.125305,4.967972 
	C458.657227,5.032501 457.171051,4.685771 455.345093,4.331141 
z"/>
<path fill="#F95509" opacity="1.000000" stroke="none" 
	d="
M563.643494,1021.645447 
	C553.506592,1022.669556 543.012268,1023.496399 532.258972,1024.661621 
	C528.307068,1025.000000 524.614197,1025.000000 520.460571,1025.000000 
	C521.312317,1024.368774 522.593201,1023.270203 523.941833,1023.179504 
	C536.245117,1022.351562 548.559509,1021.688293 560.873108,1021.020630 
	C561.667358,1020.977539 562.481262,1021.297241 563.643494,1021.645447 
z"/>
<path fill="#FFFFFE" opacity="1.000000" stroke="none" 
	d="
M327.401794,607.154175 
	C333.279419,584.268250 339.217499,561.397705 345.023010,538.493469 
	C360.261932,478.371796 375.443481,418.235565 390.645538,358.104523 
	C391.091980,356.338562 391.512390,354.566010 392.017090,352.021454 
	C394.335449,341.569000 395.821564,331.944092 390.126160,322.815063 
	C390.126160,322.815063 390.116516,322.917236 390.103699,322.599609 
	C389.489380,321.414398 388.887909,320.546875 388.286469,319.679321 
	C388.286469,319.679321 388.264465,319.830994 388.247742,319.533264 
	C387.829285,318.779968 387.427551,318.324432 387.025818,317.868866 
	C386.583832,317.299377 386.141846,316.729889 385.297638,315.761108 
	C383.627228,314.524445 382.359039,313.687073 381.090851,312.849731 
	C381.090851,312.849731 381.077362,312.923187 380.934570,312.605896 
	C368.190948,308.805054 355.590088,305.321564 342.989227,301.838074 
	C342.989227,301.838074 343.012878,301.950470 342.951843,301.671295 
	C341.587097,301.207306 340.283386,301.022522 338.979675,300.837738 
	C338.979675,300.837738 339.010559,300.955627 338.873291,300.607117 
	C333.183228,299.115082 327.630371,297.971527 322.077545,296.827972 
	C325.892120,280.228363 329.698883,263.626923 333.526733,247.030365 
	C334.490326,242.852509 335.521362,238.690170 336.385040,235.089127 
	C376.986481,243.984467 417.464111,252.852692 458.457581,261.833923 
	C467.261810,225.908005 475.865143,190.801834 484.594482,155.181549 
	C505.750732,160.425644 526.800537,165.643356 548.306763,170.974197 
	C539.682922,205.752213 531.170227,240.082382 522.530701,274.923767 
	C538.821472,278.638641 554.849487,282.293579 571.174622,286.016296 
	C580.171021,251.729416 589.138245,217.553757 598.223938,182.926407 
	C618.869568,187.991608 639.186829,192.976273 659.841431,198.043671 
	C650.698853,233.306030 641.625305,268.302246 632.769043,302.460388 
	C647.898193,308.136780 662.654236,313.020782 676.873352,319.150269 
	C702.784363,330.319885 724.863220,346.367828 738.331604,372.072754 
	C741.384888,377.899994 743.474792,384.232025 746.254578,391.043945 
	C751.215515,408.581940 752.012329,425.542328 749.109375,442.822021 
	C746.816589,456.470673 742.356934,469.312195 736.596802,481.790924 
	C736.596802,481.790924 736.720215,481.799561 736.471069,481.910431 
	C735.957581,482.565796 735.693176,483.110291 735.428772,483.654785 
	C735.428772,483.654785 735.526489,483.664246 735.308167,483.874695 
	C734.643677,485.011230 734.197510,485.937317 733.751282,486.863373 
	C733.751282,486.863373 733.829346,486.867645 733.551636,486.989014 
	C732.765503,488.042694 732.257141,488.975006 731.748718,489.907349 
	C731.748718,489.907349 731.868103,489.907593 731.606079,489.973694 
	C731.029419,490.520721 730.714783,491.001648 730.400146,491.482544 
	C730.400146,491.482544 730.422607,491.538696 730.199158,491.777954 
	C729.132751,493.155548 728.289795,494.293884 727.446777,495.432220 
	C727.446777,495.432220 727.723267,495.544525 727.374756,495.664429 
	C726.844238,496.094727 726.662292,496.405060 726.480286,496.715424 
	C726.480286,496.715424 726.691650,496.721649 726.432495,496.779846 
	C726.007996,497.201019 725.842651,497.564056 725.677307,497.927063 
	C725.677307,497.927063 725.925903,497.930939 725.642822,497.925110 
	C725.146790,498.258514 724.933899,498.597717 724.721008,498.936920 
	C710.929871,512.291748 694.785461,521.612915 676.660522,526.533569 
	C685.822205,532.872803 695.458801,538.440979 703.811340,545.523499 
	C730.185974,567.887939 739.307617,596.839172 735.277283,630.750977 
	C732.569641,653.533081 727.193604,675.372742 714.970154,695.000671 
	C700.916016,717.568237 681.953003,734.698853 656.730957,745.547302 
	C624.041199,759.215332 590.677979,758.695557 557.103821,754.412231 
	C544.805908,752.843323 532.672974,749.981567 520.464783,747.709595 
	C518.926392,747.211060 517.388000,746.712585 515.495483,746.099304 
	C506.600494,780.441040 497.750427,814.609192 488.831787,849.042297 
	C468.591217,843.773071 448.800812,838.621094 428.400208,833.310181 
	C437.193085,799.262146 445.899445,765.549011 454.720001,731.393799 
	C439.293793,727.589417 424.277832,723.886169 408.797577,720.068481 
	C399.866730,753.630127 390.990051,786.988098 381.645691,820.741516 
	C361.480408,816.047241 341.782837,810.957520 322.085266,805.867798 
	C322.085266,805.867798 322.075378,805.957764 322.104523,805.578369 
	C328.772888,779.841064 335.425262,754.486572 342.042938,729.122986 
	C343.897705,722.014221 345.650665,714.878784 347.460663,707.714722 
	C332.223999,703.489441 317.628693,699.442017 303.033386,695.394653 
	C278.806702,688.349854 254.580032,681.304993 230.252319,674.230835 
	C238.933701,651.959595 247.498642,629.987122 256.451538,607.582520 
	C269.915741,610.648804 282.935974,614.378845 296.089539,617.557007 
	C303.784424,619.416199 311.730194,620.948669 319.110535,616.058044 
	C319.110535,616.058044 319.036530,616.042175 319.308105,616.039612 
	C320.201508,615.646790 320.823303,615.256531 321.445129,614.866272 
	C321.445129,614.866272 321.762024,614.824890 322.082672,614.518066 
	C323.351898,613.199463 324.300476,612.187622 325.249084,611.175842 
	C325.249084,611.175842 325.173309,611.170776 325.439270,611.063354 
	C325.991486,610.425476 326.277710,609.894897 326.563965,609.364380 
	C326.563965,609.364380 326.462585,609.321289 326.676788,609.125610 
	C327.061249,608.338013 327.231506,607.746094 327.401794,607.154175 
M614.981934,466.357849 
	C615.214355,466.191559 615.415527,465.993469 615.765381,465.757751 
	C615.765381,465.757751 615.796021,465.580231 616.216675,465.256439 
	C616.538269,464.849670 616.859924,464.442871 617.700134,463.863983 
	C618.147766,463.307892 618.595398,462.751770 619.539612,461.972260 
	C619.895752,461.561554 620.251831,461.150848 620.767395,460.704987 
	C620.767395,460.704987 620.767334,460.541748 621.112671,460.204590 
	C621.354797,459.980316 621.525085,459.710693 621.420471,459.352631 
	C621.420471,459.352631 621.395264,459.558716 621.892090,459.177063 
	C622.034973,458.787872 622.177795,458.398712 622.118347,458.083038 
	C622.118347,458.083038 622.196289,458.283722 622.680847,458.042542 
	C622.996582,457.602142 623.312256,457.161774 623.730835,456.660461 
	C623.730835,456.660461 623.698914,456.545288 624.072937,456.128601 
	C624.199890,455.780640 624.326843,455.432678 624.242188,455.152679 
	C624.242188,455.152679 624.319275,455.361237 624.821777,454.976532 
	C625.250183,454.032684 625.678589,453.088837 626.713318,451.767426 
	C638.046448,428.891144 635.393372,406.463623 615.147156,388.522430 
	C598.899841,374.124847 579.371033,366.327087 558.277222,359.903442 
	C540.623413,355.198090 522.969666,350.492767 504.935669,345.686096 
	C494.450470,385.781525 484.156372,425.146179 473.765137,464.882294 
	C476.056915,465.470764 477.916656,466.019348 479.807465,466.422180 
	C491.536377,468.920715 503.272278,471.386475 515.805176,474.060516 
	C516.885681,474.375122 517.947388,474.849945 519.049622,474.979279 
	C529.000732,476.146851 538.941895,477.443878 548.918762,478.336334 
	C565.895325,479.854919 582.784668,479.692902 599.232666,474.633209 
	C599.232666,474.633209 599.437744,474.662140 600.122620,474.394287 
	C602.477966,473.300140 604.833313,472.205963 607.066772,471.095123 
	C607.066772,471.095123 607.053955,471.217529 607.732422,471.079498 
	C609.221252,470.092896 610.710022,469.106262 612.054871,468.083801 
	C612.054871,468.083801 612.022339,468.228546 612.621765,468.036621 
	C612.876099,467.721405 613.130432,467.406219 613.075500,467.092865 
	C613.075500,467.092865 613.081543,467.402069 613.680359,467.245667 
	C613.976440,466.968170 614.272461,466.690704 614.505554,466.523132 
	C614.505554,466.523132 614.620544,466.576294 614.981934,466.357849 
M559.805054,668.955322 
	C561.430542,668.642761 563.065430,668.372559 564.680054,668.011292 
	C586.596436,663.106506 602.058594,651.191101 608.399658,628.749207 
	C614.884888,605.797241 609.590637,586.577209 591.658508,570.714539 
	C581.854675,562.042175 570.827637,555.437073 558.980042,550.098694 
	C537.138550,540.257141 513.994873,534.582092 490.836090,528.969482 
	C480.607819,526.490662 470.384033,523.993286 459.798645,521.416809 
	C452.492126,549.942139 445.315155,577.961792 437.928467,606.731995 
	C434.073547,621.579285 430.218628,636.426514 426.186920,651.954712 
	C438.492859,655.392029 450.212616,659.599854 462.297394,661.826172 
	C481.330383,665.332581 500.539032,668.343628 519.807922,669.951233 
	C532.753235,671.031189 545.931030,669.325378 559.805054,668.955322 
z"/>
<path fill="#F65A0E" opacity="1.000000" stroke="none" 
	d="
M303.171875,695.696533 
	C317.628693,699.442017 332.223999,703.489441 347.460663,707.714722 
	C345.650665,714.878784 343.897705,722.014221 342.042938,729.122986 
	C335.425262,754.486572 328.772888,779.841064 322.149658,805.581909 
	C322.071930,804.259583 321.546844,802.444763 321.948517,800.865662 
	C329.373901,771.676331 336.812561,742.489380 344.534943,713.377869 
	C345.605957,709.340454 344.500031,708.101624 340.884430,707.170715 
	C329.285187,704.184204 317.741089,700.981384 306.198608,697.779480 
	C305.151733,697.489136 304.269226,696.606201 303.171875,695.696533 
z"/>
<path fill="#F6540C" opacity="1.000000" stroke="none" 
	d="
M520.379333,747.947144 
	C532.672974,749.981567 544.805908,752.843323 557.103821,754.412231 
	C590.677979,758.695557 624.041199,759.215332 656.523193,745.824219 
	C654.521790,747.142822 652.292908,748.932251 649.749451,749.840149 
	C634.916687,755.135010 619.604004,757.638916 603.830872,758.096802 
	C577.067871,758.873718 550.729431,756.110352 524.727234,749.876831 
	C523.201843,749.511230 521.769531,748.757690 520.379333,747.947144 
z"/>
<path fill="#F6530D" opacity="1.000000" stroke="none" 
	d="
M736.935547,481.669678 
	C742.356934,469.312195 746.816589,456.470673 749.109375,442.822021 
	C752.012329,425.542328 751.215515,408.581940 746.411499,391.397522 
	C747.223572,392.713989 748.524963,394.290619 748.965942,396.079407 
	C754.130676,417.030365 753.108948,437.848999 746.962219,458.416473 
	C744.974365,465.067841 742.285400,471.514832 739.775879,478.000671 
	C739.269287,479.309906 738.124695,480.372223 736.935547,481.669678 
z"/>
<path fill="#F6590C" opacity="1.000000" stroke="none" 
	d="
M2.496114,478.809113 
	C3.434152,466.510864 4.231843,453.958191 6.095273,441.565765 
	C8.202704,427.550690 11.266931,413.679474 14.022067,399.365967 
	C14.192194,400.574036 14.515964,402.201782 14.279258,403.743530 
	C10.937665,425.508698 7.511742,447.260864 4.129610,469.019867 
	C3.633427,472.212128 3.257739,475.423126 2.496114,478.809113 
z"/>
<path fill="#F6560C" opacity="1.000000" stroke="none" 
	d="
M318.696228,616.071106 
	C311.730194,620.948669 303.784424,619.416199 296.089539,617.557007 
	C282.935974,614.378845 269.915741,610.648804 256.460938,607.215515 
	C258.571808,607.313721 261.175659,606.881653 263.530823,607.460815 
	C273.507324,609.914490 283.427338,612.605286 293.334015,615.332825 
	C301.609100,617.611145 309.891266,618.302246 318.696228,616.071106 
z"/>
<path fill="#F65A0E" opacity="1.000000" stroke="none" 
	d="
M322.198242,806.208130 
	C341.782837,810.957520 361.480408,816.047241 381.582245,821.126831 
	C381.046936,821.491333 379.979645,822.368347 379.186584,822.166748 
	C360.686920,817.463745 342.214966,812.651428 323.751038,807.809143 
	C323.198853,807.664429 322.787964,806.980835 322.198242,806.208130 
z"/>
<path fill="#F6580D" opacity="1.000000" stroke="none" 
	d="
M343.275269,302.083557 
	C355.590088,305.321564 368.190948,308.805054 380.970154,312.594482 
	C368.619415,309.376617 356.090363,305.852844 343.275269,302.083557 
z"/>
<path fill="#F6580D" opacity="1.000000" stroke="none" 
	d="
M390.119110,323.223755 
	C395.821564,331.944092 394.335449,341.569000 391.978760,351.634155 
	C391.724304,350.424286 391.211578,348.756989 391.497955,347.240631 
	C393.010132,339.233246 392.333130,331.398071 390.119110,323.223755 
z"/>
<path fill="#F6580D" opacity="1.000000" stroke="none" 
	d="
M322.311584,297.112244 
	C327.630371,297.971527 333.183228,299.115082 338.932068,300.590942 
	C333.600586,299.747711 328.073090,298.572113 322.311584,297.112244 
z"/>
<path fill="#F6560C" opacity="1.000000" stroke="none" 
	d="
M324.895813,611.194519 
	C324.300476,612.187622 323.351898,613.199463 322.155334,614.375793 
	C322.785767,613.431274 323.664154,612.322266 324.895813,611.194519 
z"/>
<path fill="#F6580D" opacity="1.000000" stroke="none" 
	d="
M381.167480,313.186676 
	C382.359039,313.687073 383.627228,314.524445 385.040070,315.659973 
	C383.871185,315.146667 382.557648,314.335144 381.167480,313.186676 
z"/>
<path fill="#F6530D" opacity="1.000000" stroke="none" 
	d="
M727.805298,495.406860 
	C728.289795,494.293884 729.132751,493.155548 730.169373,491.783203 
	C729.630005,492.826630 728.896912,494.104065 727.805298,495.406860 
z"/>
<path fill="#F6580D" opacity="1.000000" stroke="none" 
	d="
M339.263977,301.074829 
	C340.283386,301.022522 341.587097,301.207306 343.007874,301.658661 
	C341.932678,301.720795 340.740479,301.516357 339.263977,301.074829 
z"/>
<path fill="#F6530D" opacity="1.000000" stroke="none" 
	d="
M734.064636,486.718414 
	C734.197510,485.937317 734.643677,485.011230 735.282104,483.833099 
	C735.108887,484.578522 734.743408,485.575989 734.064636,486.718414 
z"/>
<path fill="#F6530D" opacity="1.000000" stroke="none" 
	d="
M732.054932,489.762329 
	C732.257141,488.975006 732.765503,488.042694 733.550171,486.949951 
	C733.337952,487.732117 732.849487,488.674713 732.054932,489.762329 
z"/>
<path fill="#F6580D" opacity="1.000000" stroke="none" 
	d="
M388.278015,320.023438 
	C388.887909,320.546875 389.489380,321.414398 390.154968,322.601990 
	C389.569244,322.070526 388.919403,321.219025 388.278015,320.023438 
z"/>
<path fill="#F6560C" opacity="1.000000" stroke="none" 
	d="
M321.148468,614.818848 
	C320.823303,615.256531 320.201508,615.646790 319.301147,616.076782 
	C319.632324,615.668213 320.242065,615.219788 321.148468,614.818848 
z"/>
<path fill="#F6580D" opacity="1.000000" stroke="none" 
	d="
M387.103912,318.173279 
	C387.427551,318.324432 387.829285,318.779968 388.324158,319.538971 
	C388.005524,319.387512 387.593781,318.932617 387.103912,318.173279 
z"/>
<path fill="#F6560C" opacity="1.000000" stroke="none" 
	d="
M326.277405,609.495605 
	C326.277710,609.894897 325.991486,610.425476 325.440887,611.101318 
	C325.447968,610.706726 325.719421,610.166809 326.277405,609.495605 
z"/>
<path fill="#F6560C" opacity="1.000000" stroke="none" 
	d="
M327.152527,607.362976 
	C327.231506,607.746094 327.061249,608.338013 326.698792,609.176086 
	C326.638824,608.805420 326.771057,608.188599 327.152527,607.362976 
z"/>
<path fill="#F6530D" opacity="1.000000" stroke="none" 
	d="
M730.688721,491.387695 
	C730.714783,491.001648 731.029419,490.520721 731.603516,489.914062 
	C731.567749,490.289825 731.272522,490.791351 730.688721,491.387695 
z"/>
<path fill="#F6530D" opacity="1.000000" stroke="none" 
	d="
M735.712280,483.506653 
	C735.693176,483.110291 735.957581,482.565796 736.469604,481.848572 
	C736.476868,482.236786 736.236389,482.797668 735.712280,483.506653 
z"/>
<path fill="#F6530D" opacity="1.000000" stroke="none" 
	d="
M724.954712,498.762512 
	C724.933899,498.597717 725.146790,498.258514 725.643005,497.800781 
	C725.680420,497.984253 725.434448,498.286194 724.954712,498.762512 
z"/>
<path fill="#F6530D" opacity="1.000000" stroke="none" 
	d="
M725.895447,497.729340 
	C725.842651,497.564056 726.007996,497.201019 726.428528,496.674194 
	C726.493652,496.850800 726.303650,497.191223 725.895447,497.729340 
z"/>
<path fill="#F6530D" opacity="1.000000" stroke="none" 
	d="
M726.712402,496.562927 
	C726.662292,496.405060 726.844238,496.094727 727.240601,495.615936 
	C727.284851,495.768494 727.114685,496.089478 726.712402,496.562927 
z"/>
<path fill="#F66B05" opacity="1.000000" stroke="none" 
	d="
M438.138214,605.981384 
	C445.315155,577.961792 452.492126,549.942139 459.798645,521.416809 
	C470.384033,523.993286 480.607819,526.490662 490.836090,528.969482 
	C513.994873,534.582092 537.138550,540.257141 558.980042,550.098694 
	C570.827637,555.437073 581.854675,562.042175 591.658508,570.714539 
	C609.590637,586.577209 614.884888,605.797241 608.399658,628.749207 
	C602.058594,651.191101 586.596436,663.106506 564.680054,668.011292 
	C563.065430,668.372559 561.430542,668.642761 559.069580,668.714050 
	C555.051880,668.640747 551.770874,668.839172 548.487183,668.971863 
	C515.818054,670.292236 483.734833,666.354431 452.184265,657.979248 
	C444.206177,655.861389 436.382690,653.161316 428.281097,650.665039 
	C428.835785,648.145874 429.175812,646.363342 429.623322,644.608215 
	C432.460144,633.482239 435.373993,622.375366 438.115540,611.226135 
	C438.521362,609.575867 438.149994,607.734375 438.138214,605.981384 
z"/>
<path fill="#F66B05" opacity="1.000000" stroke="none" 
	d="
M619.042969,462.195679 
	C618.595398,462.751770 618.147766,463.307892 617.164917,464.035889 
	C616.351868,464.665253 616.073975,465.122742 615.796021,465.580231 
	C615.796021,465.580231 615.765381,465.757751 615.448120,465.804871 
	C614.836609,466.005829 614.666504,466.247253 614.620544,466.576294 
	C614.620544,466.576294 614.505554,466.523132 614.257324,466.586060 
	C613.699951,466.899994 613.390747,467.151031 613.081543,467.402039 
	C613.081543,467.402069 613.075500,467.092865 612.979980,467.255005 
	C612.597107,467.687622 612.309692,467.958069 612.022339,468.228516 
	C612.022339,468.228546 612.054871,468.083801 611.770752,468.127563 
	C610.009033,469.186737 608.531494,470.202118 607.053955,471.217529 
	C607.053955,471.217529 607.066772,471.095123 606.738647,471.100281 
	C604.086304,472.291016 601.762024,473.476593 599.437744,474.662170 
	C599.437744,474.662140 599.232666,474.633209 598.815063,474.434570 
	C596.599731,474.417786 594.758850,474.410767 593.011047,474.810760 
	C576.473755,478.595581 559.848267,478.614899 543.118042,476.331848 
	C533.766846,475.055756 524.374207,474.083740 514.680298,472.764679 
	C503.004883,470.051880 491.662231,467.488525 480.285980,465.084015 
	C476.960571,464.381134 475.928223,462.959229 476.837372,459.511749 
	C480.270477,446.493744 483.373505,433.388977 486.765839,420.359894 
	C492.673279,397.671021 498.806671,375.040405 504.578918,352.317688 
	C505.518646,348.618439 506.762909,347.834717 510.346130,348.804138 
	C524.945190,352.753815 539.603149,356.488373 554.268066,360.188690 
	C555.747925,360.562103 557.421204,360.169525 559.004700,360.132416 
	C579.371033,366.327087 598.899841,374.124847 615.147156,388.522430 
	C635.393372,406.463623 638.046448,428.891144 626.170898,451.903503 
	C625.192139,453.146820 624.755737,454.254028 624.319336,455.361267 
	C624.319275,455.361237 624.242188,455.152679 624.160767,455.330017 
	C623.952515,455.853333 623.825745,456.199310 623.698914,456.545288 
	C623.698914,456.545288 623.730835,456.660461 623.390137,456.753174 
	C622.765076,457.325165 622.480652,457.804443 622.196289,458.283722 
	C622.196289,458.283722 622.118347,458.083038 622.021484,458.278168 
	C621.748169,458.835083 621.571716,459.196899 621.395264,459.558716 
	C621.395264,459.558716 621.420471,459.352631 621.301758,459.500305 
	C621.044434,459.945923 620.905884,460.243835 620.767334,460.541748 
	C620.767334,460.541748 620.767395,460.704987 620.397217,460.771301 
	C619.698975,461.290314 619.370972,461.743011 619.042969,462.195679 
z"/>
<path fill="#F7580C" opacity="1.000000" stroke="none" 
	d="
M558.640991,360.017944 
	C557.421204,360.169525 555.747925,360.562103 554.268066,360.188690 
	C539.603149,356.488373 524.945190,352.753815 510.346130,348.804138 
	C506.762909,347.834717 505.518646,348.618439 504.578918,352.317688 
	C498.806671,375.040405 492.673279,397.671021 486.765839,420.359894 
	C483.373505,433.388977 480.270477,446.493744 476.837372,459.511749 
	C475.928223,462.959229 476.960571,464.381134 480.285980,465.084015 
	C491.662231,467.488525 503.004883,470.051880 514.680176,472.986938 
	C515.000000,473.419220 515.005859,473.863129 515.005859,473.863159 
	C503.272278,471.386475 491.536377,468.920715 479.807465,466.422180 
	C477.916656,466.019348 476.056915,465.470764 473.765137,464.882294 
	C484.156372,425.146179 494.450470,385.781525 504.935669,345.686096 
	C522.969666,350.492767 540.623413,355.198090 558.640991,360.017944 
z"/>
<path fill="#F65A0D" opacity="1.000000" stroke="none" 
	d="
M438.033356,606.356689 
	C438.149994,607.734375 438.521362,609.575867 438.115540,611.226135 
	C435.373993,622.375366 432.460144,633.482239 429.623322,644.608215 
	C429.175812,646.363342 428.835785,648.145874 428.281097,650.665039 
	C436.382690,653.161316 444.206177,655.861389 452.184265,657.979248 
	C483.734833,666.354431 515.818054,670.292236 548.487183,668.971863 
	C551.770874,668.839172 555.051880,668.640747 558.669495,668.669373 
	C545.931030,669.325378 532.753235,671.031189 519.807922,669.951233 
	C500.539032,668.343628 481.330383,665.332581 462.297394,661.826172 
	C450.212616,659.599854 438.492859,655.392029 426.186920,651.954712 
	C430.218628,636.426514 434.073547,621.579285 438.033356,606.356689 
z"/>
<path fill="#F74F05" opacity="1.000000" stroke="none" 
	d="
M515.405518,473.961823 
	C515.005859,473.863129 515.000000,473.419220 515.000122,473.196960 
	C524.374207,474.083740 533.766846,475.055756 543.118042,476.331848 
	C559.848267,478.614899 576.473755,478.595581 593.011047,474.810760 
	C594.758850,474.410767 596.599731,474.417786 598.826050,474.331604 
	C582.784668,479.692902 565.895325,479.854919 548.918762,478.336334 
	C538.941895,477.443878 529.000732,476.146851 519.049622,474.979279 
	C517.947388,474.849945 516.885681,474.375122 515.405518,473.961823 
z"/>
<path fill="#F74F05" opacity="1.000000" stroke="none" 
	d="
M599.780151,474.528229 
	C601.762024,473.476593 604.086304,472.291016 606.799622,471.108643 
	C604.833313,472.205963 602.477966,473.300140 599.780151,474.528229 
z"/>
<path fill="#F74F05" opacity="1.000000" stroke="none" 
	d="
M607.393188,471.148499 
	C608.531494,470.202118 610.009033,469.186737 611.842712,468.145508 
	C610.710022,469.106262 609.221252,470.092896 607.393188,471.148499 
z"/>
<path fill="#F74F05" opacity="1.000000" stroke="none" 
	d="
M624.570557,455.168884 
	C624.755737,454.254028 625.192139,453.146820 625.867798,452.092285 
	C625.678589,453.088837 625.250183,454.032684 624.570557,455.168884 
z"/>
<path fill="#F74F05" opacity="1.000000" stroke="none" 
	d="
M616.006348,465.418335 
	C616.073975,465.122742 616.351868,464.665253 616.905640,464.121948 
	C616.859924,464.442871 616.538269,464.849670 616.006348,465.418335 
z"/>
<path fill="#F74F05" opacity="1.000000" stroke="none" 
	d="
M622.438599,458.163147 
	C622.480652,457.804443 622.765076,457.325165 623.338745,456.783630 
	C623.312256,457.161774 622.996582,457.602142 622.438599,458.163147 
z"/>
<path fill="#F74F05" opacity="1.000000" stroke="none" 
	d="
M619.291321,462.083984 
	C619.370972,461.743011 619.698975,461.290314 620.317505,460.788879 
	C620.251831,461.150848 619.895752,461.561554 619.291321,462.083984 
z"/>
<path fill="#F74F05" opacity="1.000000" stroke="none" 
	d="
M623.885925,456.336945 
	C623.825745,456.199310 623.952515,455.853333 624.266602,455.296021 
	C624.326843,455.432678 624.199890,455.780640 623.885925,456.336945 
z"/>
<path fill="#F74F05" opacity="1.000000" stroke="none" 
	d="
M621.643677,459.367889 
	C621.571716,459.196899 621.748169,458.835083 622.122681,458.241394 
	C622.177795,458.398712 622.034973,458.787872 621.643677,459.367889 
z"/>
<path fill="#F74F05" opacity="1.000000" stroke="none" 
	d="
M620.940002,460.373169 
	C620.905884,460.243835 621.044434,459.945923 621.403320,459.521851 
	C621.525085,459.710693 621.354797,459.980316 620.940002,460.373169 
z"/>
<path fill="#F74F05" opacity="1.000000" stroke="none" 
	d="
M612.322021,468.132568 
	C612.309692,467.958069 612.597107,467.687622 613.134644,467.254089 
	C613.130432,467.406219 612.876099,467.721405 612.322021,468.132568 
z"/>
<path fill="#F74F05" opacity="1.000000" stroke="none" 
	d="
M613.380981,467.323853 
	C613.390747,467.151031 613.699951,466.899994 614.288818,466.531097 
	C614.272461,466.690704 613.976440,466.968170 613.380981,467.323853 
z"/>
<path fill="#F74F05" opacity="1.000000" stroke="none" 
	d="
M614.801270,466.467072 
	C614.666504,466.247253 614.836609,466.005829 615.358154,465.807770 
	C615.415527,465.993469 615.214355,466.191559 614.801270,466.467072 
z"/>
</svg>